<?xml version="1.0" standalone="no"?>
<!DOCTYPE svg PUBLIC "-//W3C//DTD SVG 20010904//EN"
 "http://www.w3.org/TR/2001/REC-SVG-20010904/DTD/svg10.dtd">
<svg version="1.0" xmlns="http://www.w3.org/2000/svg"
 width="153.000000pt" height="148.000000pt" viewBox="0 0 153.000000 148.000000"
 preserveAspectRatio="xMidYMid meet">

<g transform="translate(0.000000,148.000000) scale(0.100000,-0.100000)"
fill="#000000" stroke="none">
<path d="M655 1425 c-342 -54 -589 -342 -589 -685 0 -267 148 -502 389 -620
295 -144 646 -68 856 185 159 193 198 482 96 714 -96 219 -312 378 -556 410
-98 13 -92 13 -196 -4z m302 -156 c131 -48 259 -163 318 -284 85 -174 69 -397
-39 -555 -67 -98 -168 -177 -281 -219 -73 -28 -215 -38 -300 -22 -132 24 -283
125 -362 241 -108 159 -123 381 -38 555 59 122 191 239 318 283 86 29 99 31
217 27 78 -2 121 -9 167 -26z"/>
<path d="M420 990 c0 -42 4 -52 25 -66 l25 -16 0 -178 0 -178 -25 -16 c-21
-14 -25 -25 -25 -61 l0 -45 105 0 105 0 0 50 c0 39 -4 52 -20 60 -18 10 -20
21 -20 132 0 72 4 118 9 113 8 -9 80 -175 126 -292 13 -33 22 -43 40 -43 21 0
31 19 91 170 37 93 71 167 76 164 9 -6 11 -187 2 -221 -3 -11 -14 -23 -25 -26
-16 -4 -19 -14 -19 -56 l0 -51 105 0 105 0 0 50 c0 39 -4 52 -20 60 -19 10
-20 21 -20 194 0 175 1 184 20 189 17 4 20 14 20 61 l0 56 -96 0 -95 0 -15
-37 c-87 -211 -128 -303 -134 -296 -4 4 -38 81 -75 171 l-69 162 -98 0 -98 0
0 -50z"/>
</g>
</svg>
